HIERARCHY
ROOT pelvis
{
	OFFSET 0.000000 0.000000 0.000000
	CHANNELS 6 Xposition Yposition Zposition Zrotation Yrotation Xrotation
	JOINT left_hip
	{
		OFFSET 0.055779 -0.080629 -0.017705
		CHANNELS 3 Zrotation Yrotation Xrotation
		JOINT left_knee
		{
			OFFSET 0.039469 -0.359247 0.009008
			CHANNELS 3 Zrotation Yrotation Xrotation
			JOINT left_ankle
			{
				OFFSET -0.013809 -0.389899 -0.036404
				CHANNELS 3 Zrotation Yrotation Xrotation
				JOINT left_foot
				{
					OFFSET 0.037897 -0.056346 0.116500
					CHANNELS 3 Zrotation Yrotation Xrotation
					End Site
					{
						OFFSET 0.000000 0.000000 0.000000
					}
				}
			}
		}
	}
	JOINT right_hip
	{
		OFFSET -0.057787 -0.088871 -0.013401
		CHANNELS 3 Zrotation Yrotation Xrotation
		JOINT right_knee
		{
			OFFSET -0.039496 -0.356943 -0.002206
			CHANNELS 3 Zrotation Yrotation Xrotation
			JOINT right_ankle
			{
				OFFSET 0.017959 -0.383749 -0.033094
				CHANNELS 3 Zrotation Yrotation Xrotation
				JOINT right_foot
				{
					OFFSET -0.031235 -0.058281 0.124713
					CHANNELS 3 Zrotation Yrotation Xrotation
					End Site
					{
						OFFSET 0.000000 0.000000 0.000000
					}
				}
			}
		}
	}
	JOINT spine1
	{
		OFFSET 0.004196 0.122659 -0.034271
		CHANNELS 3 Zrotation Yrotation Xrotation
		JOINT spine2
		{
			OFFSET 0.005122 0.143143 0.029537
			CHANNELS 3 Zrotation Yrotation Xrotation
			JOINT spine3
			{
				OFFSET -0.001923 0.057757 0.004628
				CHANNELS 3 Zrotation Yrotation Xrotation
				JOINT neck
				{
					OFFSET -0.013781 0.203940 -0.035143
					CHANNELS 3 Zrotation Yrotation Xrotation
					JOINT head
					{
						OFFSET 0.009065 0.086539 0.049216
						CHANNELS 3 Zrotation Yrotation Xrotation
						End Site
						{
							OFFSET 0.000000 0.000000 0.000000
						}
					}
				}
				JOINT left_collar
				{
					OFFSET 0.070315 0.109742 -0.020357
					CHANNELS 3 Zrotation Yrotation Xrotation
					JOINT left_shoulder
					{
						OFFSET 0.122280 0.043464 -0.020451
						CHANNELS 3 Zrotation Yrotation Xrotation
						JOINT left_elbow
						{
							OFFSET 0.245347 -0.013316 -0.020298
							CHANNELS 3 Zrotation Yrotation Xrotation
							JOINT left_wrist
							{
								OFFSET 0.251466 0.010925 -0.008411
								CHANNELS 3 Zrotation Yrotation Xrotation
								End Site
								{
									OFFSET 0.000000 0.000000 0.000000
								}
							}
						}
					}
				}
				JOINT right_collar
				{
					OFFSET -0.083386 0.108780 -0.024575
					CHANNELS 3 Zrotation Yrotation Xrotation
					JOINT right_shoulder
					{
						OFFSET -0.112806 0.044731 -0.008805
						CHANNELS 3 Zrotation Yrotation Xrotation
						JOINT right_elbow
						{
							OFFSET -0.248827 -0.010357 -0.028458
							CHANNELS 3 Zrotation Yrotation Xrotation
							JOINT right_wrist
							{
								OFFSET -0.255561 0.006434 -0.006231
								CHANNELS 3 Zrotation Yrotation Xrotation
								End Site
								{
									OFFSET 0.000000 0.000000 0.000000
								}
							}
						}
					}
				}
			}
		}
	}
}
MOTION
Frames: 8
Frame Time: 0.033333
-0.078563 0.662769 -1.877267 0.000000 0.000000 0.000000 -1.809671 0.171637 -6.943071 -0.014792 -0.091273 7.012749 0.487863 -0.053856 -0.074402 0.000000 0.000000 0.000000 -0.870818 -0.002600 -1.924090 -0.006171 -0.072326 -2.078622 -0.442900 0.131119 3.997940 0.000000 0.000000 0.000000 -1.744297 -0.047628 -0.003245 0.000000 0.000000 0.000000 -0.481549 -0.083392 0.001209 0.000000 0.000000 0.000000 0.000000 0.000000 0.000000 0.000000 0.000000 0.000000 0.000000 0.000000 0.000000 0.000000 0.000000 0.000000 0.000000 0.000000 0.000000 0.000000 0.000000 0.000000 0.000000 0.000000 0.000000 0.000000 0.000000 0.000000 0.000000 0.000000 0.000000
-0.117979 0.636060 -1.901521 -9.299500 -27.190500 6.349500 9.146290 32.426149 -65.040595 -0.058508 -0.863105 74.822546 0.633461 1.734902 -8.260773 0.000000 0.000000 0.000000 -11.679943 -4.357172 9.231433 1.112699 1.622271 35.104441 -0.732281 -29.052316 -23.185468 0.000000 0.000000 0.000000 5.826572 9.007629 10.040909 0.000000 0.000000 0.000000 1.255987 2.674837 -7.344216 -11.395502 -9.558605 15.485980 16.778514 -16.512880 -19.334273 0.000000 0.000000 0.000000 -76.195740 -5.748338 16.453672 14.684157 -22.178332 -6.156076 -0.495459 -2.779580 20.209813 0.000000 0.000000 0.000000 70.621261 0.344216 40.545885 -23.299093 31.658535 -11.561180 0.103250 1.285230 9.185691
-0.118637 0.636005 -1.901469 -9.202900 -27.191700 6.361900 9.090771 32.411022 -65.039290 -0.048982 -0.862458 74.792260 0.640201 1.784420 -8.224366 0.000000 0.000000 0.000000 -11.738995 -4.414475 9.196840 1.114236 1.624475 35.135103 -0.728929 -28.964181 -23.304051 0.000000 0.000000 0.000000 5.686457 9.028548 9.964899 0.000000 0.000000 0.000000 1.311850 2.680410 -7.359136 -11.400495 -9.590199 15.562484 16.734884 -16.610810 -19.242240 0.000000 0.000000 0.000000 -76.152930 -5.835586 16.502345 14.636020 -22.117813 -6.128724 -0.493360 -2.773892 20.166454 0.000000 0.000000 0.000000 70.660660 0.315953 40.333240 -23.177714 31.542652 -11.478732 0.107889 1.313585 9.390280
-0.119358 0.635982 -1.901145 -9.197400 -27.191000 6.404400 9.143444 32.414381 -65.034117 -0.051683 -0.866146 74.804384 0.638828 1.785262 -8.232994 0.000000 0.000000 0.000000 -11.727013 -4.478061 9.220000 1.112102 1.621090 35.088908 -0.725136 -28.939313 -23.307464 0.000000 0.000000 0.000000 5.709583 9.154027 9.901013 0.000000 0.000000 0.000000 1.218441 2.710278 -7.314306 -11.289499 -9.662091 15.409191 16.649494 -16.781169 -18.917364 0.000000 0.000000 0.000000 -76.021721 -6.055659 16.694965 14.572918 -22.038373 -6.093068 -0.499043 -2.789296 20.283586 0.000000 0.000000 0.000000 70.750084 0.289938 40.092618 -23.076499 31.445762 -11.410167 0.109317 1.322188 9.452310
-0.120083 0.635980 -1.901041 -9.194500 -27.172100 6.421600 9.217629 32.386586 -65.023141 -0.058411 -0.869807 74.820716 0.642273 1.821793 -8.222005 0.000000 0.000000 0.000000 -11.677832 -4.466596 9.283473 1.108423 1.619169 35.030936 -0.726645 -29.003667 -23.298290 0.000000 0.000000 0.000000 5.714604 9.188070 9.897726 0.000000 0.000000 0.000000 1.169262 2.725447 -7.367370 -11.203682 -9.659578 15.204256 16.598892 -16.793953 -18.520699 0.000000 0.000000 0.000000 -75.914793 -6.128068 16.789558 14.574709 -22.040628 -6.094040 -0.498618 -2.788149 20.274854 0.000000 0.000000 0.000000 70.749956 0.130455 40.126625 -23.142176 31.508750 -11.454694 0.108571 1.317704 9.420004
-0.120631 0.635922 -1.901020 -9.140200 -27.181000 6.458000 9.196059 32.374151 -65.055116 -0.054134 -0.869845 74.812704 0.651125 1.886399 -8.187558 0.000000 0.000000 0.000000 -11.680437 -4.453939 9.251704 1.112435 1.623170 35.038620 -0.729618 -29.038642 -23.332940 0.000000 0.000000 0.000000 5.625723 9.175510 9.851315 0.000000 0.000000 0.000000 1.162235 2.726655 -7.459173 -11.236512 -9.725937 15.257104 16.556009 -16.948905 -18.488026 0.000000 0.000000 0.000000 -75.822087 -6.102887 16.801120 14.618166 -22.095484 -6.118623 -0.492515 -2.771591 20.148990 0.000000 0.000000 0.000000 70.742820 -0.014993 40.223902 -23.178356 31.543186 -11.480497 0.108734 1.318684 9.427039
-0.121252 0.635911 -1.900936 -9.161400 -27.207000 6.475200 9.281346 32.395391 -65.031344 -0.059252 -0.873197 74.839137 0.651645 1.911584 -8.207319 0.000000 0.000000 0.000000 -11.655582 -4.485222 9.262495 1.110848 1.622198 35.052509 -0.732398 -29.106187 -23.288101 0.000000 0.000000 0.000000 5.668371 9.206523 9.831066 0.000000 0.000000 0.000000 1.070051 2.725514 -7.500593 -11.147805 -9.681904 15.266627 16.603396 -16.863475 -18.445017 0.000000 0.000000 0.000000 -75.704850 -6.066745 16.805491 14.674509 -22.166616 -6.147207 -0.491163 -2.767907 20.120987 0.000000 0.000000 0.000000 70.825881 -0.084981 40.083553 -23.086051 31.454992 -11.416646 0.110416 1.328771 9.499868
-0.121672 0.635895 -1.900749 -9.117200 -27.277200 6.471900 9.289005 32.404491 -64.996813 -0.063213 -0.875442 74.861000 0.661477 1.998173 -8.175105 0.000000 0.000000 0.000000 -11.712513 -4.487618 9.189526 1.113170 1.621642 35.142651 -0.723893 -28.945291 -23.467320 0.000000 0.000000 0.000000 5.654103 9.332212 9.908184 0.000000 0.000000 0.000000 0.944682 2.745337 -7.465327 -11.044994 -9.744173 15.035112 16.504600 -16.973831 -18.332052 0.000000 0.000000 0.000000 -75.561276 -6.313731 16.878412 14.625300 -22.104395 -6.122705 -0.489151 -2.762414 20.079336 0.000000 0.000000 0.000000 70.877447 -0.073025 39.897539 -23.070125 31.439712 -11.405803 0.110729 1.330642 9.513339
